# xmcd CD database file
#
# Track frame offsets:
#	150
#	11608
#	24177
#	36738
#	49711
#	62394
#	71376
#	83037
#	98165
#	107661
#	119068
#	131586
#	144648
#	156892
#	170414
#	182145
#	194987
#	208322
#	220245
#	233226
#
# Disc length: 3278 seconds
#
# Revision: 2
# Processed by: cddbd v1.5.2PL0 Copyright (c) Steve Scherf et al.
# Submitted via: CDex 1.70beta2
#
DISCID=280ccc14
DTITLE=Various Artist - Country and Western Original Masters - CD 5
DYEAR=1900
DGENRE=Country
TTITLE0=Roy Acuff (1942) - Fireball Mail (Jenkins)
TTITLE1=Al Dexter (1943) - Pistol Packin' Mama (Dexter)
TTITLE2=Tex Ritter (1943) - Jingle Jangle Jingle (Liliey - Loesser)
TTITLE3=Spade Cooley (1944) - Shame On You (Cooley)
TTITLE4=Tex Ritter (1944) - I'm Wasting My Tears On You (Ritter - Harfort)
TTITLE5=Johnny Bond (1945) - Ten Years (Bond)
TTITLE6=Bob Wills (1945) - Roly Poly (Wills)
TTITLE7=Arthur Smith (1946) - Guitar Boogie (Smith)
TTITLE8=Johnny Bond (1945) - Red River Valley (Traditional)
TTITLE9=Texas Ruby (1945) - Don't Let That Man Get You Down (Rose)
TTITLE10=Jack Guthrie (1945) - Oklahoma Hills (Guthrie)
TTITLE11=Wesley Tuttle (1945) - With Tears in My Eyes (Howard)
TTITLE12=Shelley Lee Alley (1945) - Low Down Blues (Rowe - Brewer)
TTITLE13=The Armstrong Twins (1946) - Mandolin Boogie (Armstrong)
TTITLE14=Merle Travis (1946) - Cincinnati Lou (Travis)
TTITLE15=Spade Cooley (1946) - Oklahoma Stomp (Cooley - DePaul - Weis)
TTITLE16=Tex Williams (1946) - I Got Texas In My Soul (Tubb)
TTITLE17=Jimmie Widener (1946) - I've Got the Hesitation Blues (Hensley - Penny)
TTITLE18=Jimmy Wyble (1946) - Taking My Time (Ray)
TTITLE19=Jimmie Widener (1946) - I Hear You Knockin' (Hensley)
EXTD=
EXTT0=
EXTT1=
EXTT2=
EXTT3=
EXTT4=
EXTT5=
EXTT6=
EXTT7=
EXTT8=
EXTT9=
EXTT10=
EXTT11=
EXTT12=
EXTT13=
EXTT14=
EXTT15=
EXTT16=
EXTT17=
EXTT18=
EXTT19=
PLAYORDER=
